<svg xmlns="http://www.w3.org/2000/svg" viewBox="0 0 1000 44" width="1000" height="44" role="presentation">
<defs><linearGradient id="d" gradientUnits="userSpaceOnUse" x1="0" y1="0" x2="1000" y2="0"><stop offset="0" stop-color="#24c6dc" stop-opacity="0"/><stop offset="0.3" stop-color="#24c6dc"/><stop offset="0.7" stop-color="#a78bfa"/><stop offset="1" stop-color="#a78bfa" stop-opacity="0"/></linearGradient>
<filter id="g" x="-10%" y="-100%" width="120%" height="300%"><feGaussianBlur stdDeviation="2.5" result="b"/><feMerge><feMergeNode in="b"/><feMergeNode in="SourceGraphic"/></feMerge></filter></defs>
<path d="M0 22 L160 22 L174 22 L182 10 L191 36 L201 3 L211 40 L219 22 L235 22L520 22 L534 22 L542 10 L551 36 L561 3 L571 40 L579 22 L595 22L800 22 L814 22 L822 10 L831 36 L841 3 L851 40 L859 22 L875 22 L1000 22" fill="none" stroke="url(#d)" stroke-width="2" opacity="0.7" stroke-linejoin="round"/>
<path d="M0 22 L160 22 L174 22 L182 10 L191 36 L201 3 L211 40 L219 22 L235 22L520 22 L534 22 L542 10 L551 36 L561 3 L571 40 L579 22 L595 22L800 22 L814 22 L822 10 L831 36 L841 3 L851 40 L859 22 L875 22 L1000 22" fill="none" stroke="#fff" stroke-width="2.5" stroke-linecap="round" stroke-linejoin="round" pathLength="1000" stroke-dasharray="70 930" filter="url(#g)"><animate attributeName="stroke-dashoffset" values="0;-1000" dur="4s" repeatCount="indefinite"/></path>
</svg>